<svg width="489" height="220" viewBox="0 0 489 220" fill="none" xmlns="http://www.w3.org/2000/svg">
<path d="M117.895 47.2649C115.053 47.7538 109.462 49.5872 107.567 50.6872C104.237 52.5816 99.8672 56.7677 97.4838 60.3122C96.5061 61.7177 93.3894 67.7677 92.3811 70.1816C91.0366 73.39 88.0422 81.365 86.545 85.765C80.1894 104.282 76.1561 113.784 70.5644 123.196C64.0255 134.196 55.3783 141.957 46.7005 144.615C44.1033 145.409 40.0394 145.532 32.4922 145.073C27.42 144.768 25.6783 145.073 21.7366 147.059C15.1672 150.329 10.8283 158.426 11.3477 166.432C11.7755 172.971 14.3422 178.073 19.5061 182.596C22.5922 185.254 28.1227 187.729 33.7144 188.921C36.1283 189.44 44.4088 189.44 47.3116 188.921C53.0255 187.912 61.6422 184.154 66.8672 180.426C69.8005 178.318 75.2394 173.184 77.47 170.404C80.2505 166.921 84.8033 159.343 87.2172 154.209C88.5616 151.307 91.3116 144.187 92.2894 141.071C93.97 135.632 96.6588 124.326 98.1866 116.168C99.3783 109.873 100.723 102.54 101.548 97.8344C102.923 90.0427 103.228 89.4622 105.764 89.6455L107.048 89.7372L107.231 110.209C107.506 138.229 108.606 159.679 110.287 168.509C112.151 178.471 116.184 184.521 123.151 187.637C126.267 189.012 128.07 189.348 132.409 189.318C135.984 189.287 136.656 189.196 139.131 188.34C144.081 186.69 146.984 184.551 151.109 179.632C153.645 176.607 154.898 174.865 156.762 171.626C158.626 168.418 161.834 161.634 163.606 157.173C164.981 153.629 169.748 141.621 173.017 133.432C175.248 127.779 178.945 119.101 180.473 115.862C186.645 102.754 190.037 96.3983 191.381 95.5122C191.778 95.2677 192.542 95.0844 193.123 95.1455C194.131 95.2372 194.131 95.2677 194.07 96.6733C194.039 97.4983 193.428 100.646 192.664 103.701C188.387 121.118 186.034 132.24 184.964 140.459C183.742 149.748 183.559 151.49 183.406 156.807C183.101 165.576 183.987 170.679 186.798 176.515C189.12 181.312 192.695 184.887 197.523 187.209C200.487 188.615 202.901 189.196 206.903 189.409C212.801 189.715 217.934 188.615 223.067 185.926C226.948 183.909 231.806 179.051 233.028 175.965C233.731 174.223 234.434 174.468 235.503 176.79C236.695 179.418 238.009 181.312 240.27 183.543C242.531 185.804 244.548 186.996 248.367 188.34C251.27 189.348 251.27 189.348 257.076 189.318C262.606 189.318 263.003 189.287 265.478 188.462C270.337 186.843 273.026 185.346 275.714 182.626C278.709 179.632 279.809 177.646 281.031 173.001C282.437 167.746 284.453 158.884 284.301 158.732C284.239 158.671 283.109 159.221 281.764 159.984C278.495 161.879 275.898 162.551 273.667 162.062C271.712 161.604 270.031 160.321 269.053 158.548C268.473 157.448 268.381 156.807 268.412 154.362C268.442 152.621 268.687 150.421 269.084 148.862C269.939 145.226 274.156 130.101 277.914 117.237C278.831 114.029 279.87 110.393 280.206 109.14C280.542 107.887 281.551 104.251 282.467 101.104C283.384 97.9261 284.117 95.2066 284.117 95.0538C284.117 94.9011 281.184 94.7788 277.334 94.7788C266.884 94.7788 262.698 95.4205 257.839 97.7733C255.303 98.9955 254.57 99.5455 251.881 102.234C248.673 105.443 247.756 106.879 245.22 112.501C242.837 117.818 236.298 140.887 234.159 151.551C233.456 155.004 233.273 155.493 232.081 157.051C230.401 159.251 228.476 160.321 226.031 160.321C223.495 160.321 221.998 159.221 220.531 156.318C219.034 153.354 218.576 150.207 218.82 144.126C219.095 136.976 220.103 131.476 224.564 112.807C225.756 107.857 227.284 101.379 227.956 98.4455C228.628 95.5122 230.187 89.0955 231.439 84.2066C234.006 74.0011 234.648 70.4566 234.648 66.3011C234.678 59.7622 231.928 54.8733 226.123 51.1761C223.098 49.2205 217.292 47.7233 212.801 47.7233C210.326 47.7233 204.337 48.7927 201.648 49.7094C195.812 51.6955 189.456 56.4927 184.537 62.6955C179.556 68.9288 176.073 74.1844 170.848 83.4733C163.667 96.215 155.448 113.143 148.206 130.223C147.534 131.812 146.556 134.012 146.067 135.112C145.578 136.212 144.906 137.832 144.631 138.748C143.989 140.704 142.981 141.834 141.912 141.834C140.262 141.834 140.201 141.498 140.201 133.798C140.17 110.301 140.262 97.9872 140.506 88.515C141.331 57.715 141.362 58.7233 139.559 55.1177C138.306 52.5816 136.167 50.6872 132.776 49.0983C128.223 46.9594 123.334 46.3483 117.895 47.2649Z" fill="white"/>
<path d="M359.529 92.2127C354.457 93.3127 350.79 96.0321 349.537 99.6683C349.324 100.249 349.049 103.335 348.896 106.543C348.224 120.415 345.474 129.857 337.712 145.074C334.779 150.879 330.929 157.052 329.585 158.182C328.637 159.007 327.507 159.038 326.743 158.304C326.254 157.815 326.468 155.127 327.324 150.849C328.24 146.143 329.493 138.229 330.104 133.127C330.624 128.818 330.685 119.957 330.226 116.565C329.035 107.643 325.551 101.471 319.501 97.4683C315.529 94.8405 312.168 93.8627 307.035 93.8627C303.062 93.8627 300.19 94.4738 297.41 95.8183C291.299 98.8738 287.632 104.099 287.265 110.363C287.082 113.449 287.479 115.679 288.671 118.185C289.893 120.69 291.085 121.699 294.904 123.349C298.54 124.968 299.426 125.763 300.19 128.268C301.046 131.171 300.465 136.06 298.204 144.279C294.324 158.457 293.437 165.913 294.935 171.871C295.882 175.507 296.493 176.913 298.418 179.785C301.412 184.246 305.874 187.24 311.526 188.646C315.468 189.624 322.557 189.593 326.407 188.615C335.115 186.354 343.365 180.671 352.074 170.863C362.279 159.435 372.729 141.957 377.435 128.543C382.69 113.602 382.537 101.379 377.037 96.0321C373.34 92.4266 366.007 90.8377 359.529 92.2127Z" fill="white"/>
<path d="M430.752 92.0597C425.619 92.7931 417.614 95.3597 412.786 97.8042C393.872 107.338 382.2 125.029 380.397 146.907C379.908 152.804 380.641 158.671 382.566 164.751C383.727 168.326 384.827 170.557 387.119 173.918C392.344 181.557 399.8 186.293 410.341 188.646C413.183 189.288 414.283 189.349 420.852 189.349C429.775 189.349 432.739 188.89 440.102 186.385C457.397 180.518 470.811 166.035 476.28 147.304C477.869 141.804 478.266 138.901 478.266 132.668C478.297 124.357 477.197 119.376 473.897 112.654C471.697 108.193 469.986 105.901 466.136 102.204C460.727 97.0403 453.577 93.7097 444.716 92.182C441.783 91.6931 433.777 91.6014 430.752 92.0597ZM434.877 123.043C438.85 123.685 442.73 127.474 444.044 132.026C444.686 134.196 444.686 138.993 444.075 141.376C441.355 151.857 430.936 159.038 422.502 156.196C416.819 154.271 413.977 149.718 413.977 142.476C413.977 136.854 415.902 131.965 419.752 127.963C422.564 124.999 425.802 123.379 429.805 122.921C431.852 122.676 432.616 122.676 434.877 123.043Z" fill="white"/>
<path d="M286.277 30.25L288.123 42.0651C289.053 48.0172 292.965 52.6855 298.662 54.6431L309.972 58.5288L297.281 62.4146C290.887 64.3721 285.316 69.0405 282.269 74.9926L276.222 86.8076L274.376 74.9926C273.446 69.0405 269.534 64.3721 263.837 62.4146L252.527 58.5288L265.218 54.6431C271.612 52.6855 277.183 48.0171 280.23 42.0651L286.277 30.25Z" fill="white"/>
</svg>
