<svg width="183" height="182" viewBox="0 0 183 182" fill="none" xmlns="http://www.w3.org/2000/svg">
<path d="M126.734 11.7997C137.359 -1.66124 156.866 -3.9229 170.303 6.65709C183.791 17.277 186.064 36.8034 175.476 50.2508L175.464 50.2674L175.45 50.284L80.3533 170.406L80.2537 170.527C74.3035 177.749 65.4454 181.952 56.074 181.977L55.824 181.978L55.574 181.972C54.1161 181.93 52.4426 181.8 50.6638 181.491L50.6345 181.486L50.6043 181.48C39.4286 179.493 30.2576 171.573 26.6277 160.864L26.614 160.826L1.60132 85.7879C-3.81804 69.5299 4.96335 51.9681 21.2214 46.5487L21.9841 46.3055C37.7706 41.4838 54.5828 49.8896 60.197 65.412L60.4597 66.1678L67.3503 86.8397L126.734 11.7997ZM160.406 19.2274C153.881 14.09 144.419 15.2028 139.281 21.7274L61.531 119.977L45.281 71.2274C42.656 63.3527 34.1558 59.1027 26.281 61.7274C18.4061 64.3524 14.1562 72.8525 16.781 80.7274L41.781 155.727C43.5435 160.927 47.9935 164.765 53.406 165.727C54.0528 165.84 54.7137 165.91 55.3728 165.949L56.031 165.977C60.4872 165.965 64.709 164.03 67.6277 160.682L67.906 160.352L162.906 40.3524C168.043 33.8274 166.931 24.3648 160.406 19.2274Z" fill="white"/>
<path d="M56.0309 165.978C55.1559 165.953 54.2684 165.878 53.4059 165.728C47.9934 164.765 43.5434 160.928 41.7809 155.728L16.7809 80.728C14.1559 72.853 18.4059 64.353 26.2809 61.728C34.1559 59.103 42.6559 63.353 45.2809 71.228L61.5309 119.978L139.281 21.728C144.418 15.203 153.881 14.0905 160.406 19.228C166.931 24.3655 168.043 33.828 162.906 40.353L67.9059 160.353C64.9809 163.903 60.6309 165.965 56.0309 165.978Z" fill="#3DBD5A"/>
<path opacity="0.35" d="M104.968 84.6523C106.831 83.1023 142.431 40.6273 142.431 40.6273C142.431 40.6273 145.406 37.4648 142.881 34.6898C140.506 32.1523 137.406 33.8148 135.918 35.4648C134.431 37.1148 102.306 74.9898 100.981 76.8648C99.6805 78.9773 99.643 81.6273 100.868 83.7773C102.043 85.6773 103.681 85.7773 104.968 84.6523Z" fill="white"/>
<path opacity="0.35" d="M146.568 31.1777C148.847 31.1777 150.693 29.3309 150.693 27.0527C150.693 24.7746 148.847 22.9277 146.568 22.9277C144.29 22.9277 142.443 24.7746 142.443 27.0527C142.443 29.3309 144.29 31.1777 146.568 31.1777Z" fill="white"/>
</svg>
