<svg width="180" height="180" viewBox="0 0 180 180" fill="none" xmlns="http://www.w3.org/2000/svg">
<path d="M96.8126 3.96875C106.568 3.96875 117.696 9.04333 123.505 20.4844C129.993 33.2141 131.048 44.0671 129.027 54.3379C129.006 54.4477 128.981 54.5567 128.959 54.666C129.594 54.7461 130.175 54.8246 130.695 54.9004C135.222 55.4965 143.987 56.6979 151.526 60.1416C157.357 62.7468 162.071 66.8609 165.047 72.4824C167.815 77.71 168.406 82.9918 168.496 86.8779C168.548 89.0274 168.417 91.1406 168.099 93.1875C168.386 93.6813 168.661 94.1914 168.921 94.7197C171.595 100.158 171.782 105.569 171.609 109.46L171.606 109.549C171.372 114.229 170.152 118.758 167.899 122.782C168.828 127.054 168.633 131.053 168.285 134.317C167.85 138.804 166.493 144.873 161.558 150.224C160.77 151.077 159.94 151.856 159.08 152.57L159.078 152.603C158.865 155.375 158.237 159.647 155.718 164.032C153.076 168.632 149.149 172.002 144.531 174.311C140.214 176.469 129.724 180.334 112.253 175.707C98.1103 177.467 80.108 176.159 64.3575 169.573C58.2319 169.455 51.9655 169.186 46.9298 168.933C43.9311 168.781 41.3293 168.635 39.4278 168.527C37.0797 168.395 36.5911 168.375 36.8751 168.375C33.9604 168.375 29.9457 167.742 25.9396 165.325C21.647 162.736 18.3638 158.689 16.5577 153.632C15.6376 151.055 14.9786 147.212 14.5314 144.233C13.9906 140.632 13.4578 136.115 13.0919 131.205C12.3934 121.832 12.1669 109.36 14.5079 99.0293C14.512 99.011 14.5155 98.9928 14.5196 98.9746C14.5224 98.9626 14.5247 98.9505 14.5274 98.9385C16.7097 89.3118 24.8632 83.54 32.8985 82.9219L33.0646 82.9072C33.1784 82.8969 33.326 82.883 33.5089 82.8652C33.8754 82.8296 34.34 82.7825 34.8819 82.7266C35.9641 82.6149 37.2964 82.4742 38.6583 82.3271C40.2233 82.1582 41.7882 81.9846 43.0265 81.8467C44.9443 78.0503 48.4885 69.8537 56.1915 60.6523C58.6869 57.6477 61.605 55.1306 63.5235 53.4668C65.7513 51.5348 67.2205 50.2674 68.5314 48.8691C70.6134 46.6482 71.7323 44.7302 71.8917 41.2734C72.0155 38.5498 72.1711 34.9519 72.295 31.8857C72.357 30.351 72.4106 28.9663 72.4483 27.8994C72.4884 26.767 72.4987 26.2843 72.5001 26.25C72.5001 18.4285 76.5407 12.2608 81.6944 8.59473C86.48 5.19055 92.0012 3.96881 96.8126 3.96875ZM109.25 27.75C103.75 16.8752 88.5001 18.375 88.5001 26.25C88.5001 27.5 88.1251 36.5 87.8751 42C87.1251 58.375 74.6251 63.5 68.5001 70.875C55.5003 86.3749 58.2501 96.125 47.0001 97.5C44.8745 97.7501 35.75 98.75 34.1251 98.875C32.5002 99.0002 30.6251 100.25 30.1251 102.5C26.5002 118.375 30.3751 144.75 31.6251 148.25C32.875 151.75 35.5 152.375 36.8751 152.375C38.1251 152.375 54.2502 153.5 67.8751 153.625C82.25 160.5 100.375 161.625 113.375 159.375C128.749 164.25 136.124 160.625 137.375 160C141.875 157.75 142.875 154.625 143.125 151.375C143.25 148.625 142.75 145.625 141.125 143.875C149.75 141.375 151.875 138.125 152.375 132.625C153 126.75 152.25 123.75 148.625 119.875C153.125 117.625 155.375 113.75 155.625 108.75C155.875 103.125 154.625 99.75 149.375 96.875C151.125 95.25 152.625 92.25 152.5 87.25C152.375 81.875 150.875 77.375 145 74.75C139.875 72.3751 133.25 71.375 128.5 70.75C124.25 70.125 115.75 69.25 107 71C111 56.625 119.125 47.125 109.25 27.75Z" fill="white"/>
<path d="M107 71C115.75 69.25 124.25 70.125 128.5 70.75C133.25 71.375 139.875 72.375 145 74.75C150.875 77.375 152.375 81.875 152.5 87.25C152.625 92.25 151.125 95.25 149.375 96.875C154.625 99.75 155.875 103.125 155.625 108.75C155.375 113.75 153.125 117.625 148.625 119.875C152.25 123.75 153 126.75 152.375 132.625C151.875 138.125 149.75 141.375 141.125 143.875C142.75 145.625 143.25 148.625 143.125 151.375C142.875 154.625 141.875 157.75 137.375 160C136.125 160.625 128.75 164.25 113.375 159.375C100.375 161.625 82.2504 160.5 67.8754 153.625C54.2504 153.5 38.1254 152.375 36.8754 152.375C35.5004 152.375 32.8754 151.75 31.6254 148.25C30.3754 144.75 26.5004 118.375 30.1254 102.5C30.6254 100.25 32.5004 99 34.1254 98.875C35.7504 98.75 44.8754 97.75 47.0004 97.5C58.2504 96.125 55.5004 86.375 68.5004 70.875C74.6254 63.5 87.1254 58.375 87.8754 42C88.1254 36.5 88.5004 27.5 88.5004 26.25C88.5004 18.375 103.75 16.875 109.25 27.75C119.125 47.125 111 56.625 107 71Z" fill="#3DBD5A"/>
</svg>
