<svg width="180" height="180" viewBox="0 0 180 180" fill="none" xmlns="http://www.w3.org/2000/svg">
<path d="M83.1874 176.031C73.4317 176.031 62.3036 170.957 56.495 159.516C50.007 146.786 48.9525 135.933 50.9726 125.662C50.9942 125.552 51.0187 125.443 51.0409 125.334C50.4056 125.254 49.8249 125.175 49.3046 125.1C44.7784 124.503 36.0132 123.302 28.4735 119.858C22.6429 117.253 17.9292 113.139 14.953 107.518C12.1855 102.29 11.5942 97.0082 11.5038 93.1221C11.4516 90.9726 11.5827 88.8594 11.9013 86.8125C11.614 86.3187 11.3388 85.8086 11.079 85.2803C8.40459 79.8423 8.21762 74.4308 8.39052 70.54L8.39442 70.4512C8.62842 65.7711 9.84758 61.2415 12.1015 57.2178C11.172 52.9462 11.3675 48.947 11.7147 45.6826C12.1501 41.196 13.5069 35.1268 18.4423 29.7764C19.2296 28.9228 20.0598 28.1443 20.9198 27.4297L20.9218 27.3975C21.1351 24.625 21.7629 20.3532 24.2821 15.9678C26.9244 11.3682 30.8511 7.99834 35.4686 5.68945C39.7857 3.53094 50.2763 -0.333557 67.747 4.29297C81.8897 2.53273 99.892 3.841 115.642 10.4268C121.768 10.5446 128.034 10.8136 133.07 11.0674C136.069 11.2185 138.671 11.3652 140.572 11.4727C142.92 11.6054 143.409 11.625 143.125 11.625C146.04 11.625 150.054 12.2584 154.06 14.6748C158.353 17.2641 161.636 21.3115 163.442 26.3682C164.362 28.9445 165.021 32.7878 165.469 35.7666C166.009 39.3676 166.542 43.8846 166.908 48.7949C167.607 58.1678 167.833 70.6401 165.492 80.9707C165.488 80.989 165.484 81.0072 165.48 81.0254C165.478 81.0374 165.475 81.0495 165.473 81.0615C163.29 90.6882 155.137 96.46 147.101 97.0781L146.935 97.0928C146.822 97.1031 146.674 97.117 146.491 97.1348C146.125 97.1704 145.66 97.2175 145.118 97.2734C144.036 97.3851 142.704 97.5258 141.342 97.6729C139.777 97.8418 138.212 98.0154 136.974 98.1533C135.056 101.95 131.511 110.146 123.808 119.348C121.313 122.352 118.395 124.869 116.476 126.533C114.249 128.465 112.78 129.733 111.469 131.131C109.387 133.352 108.268 135.27 108.108 138.727C107.984 141.45 107.829 145.048 107.705 148.114C107.643 149.649 107.589 151.034 107.552 152.101C107.512 153.233 107.501 153.716 107.5 153.75C107.5 161.571 103.459 167.739 98.3056 171.405C93.52 174.809 87.9988 176.031 83.1874 176.031ZM70.7499 152.25C76.25 163.125 91.4999 161.625 91.4999 153.75C91.4999 152.5 91.8749 143.5 92.1249 138C92.8749 121.625 105.375 116.5 111.5 109.125C124.5 93.6251 121.75 83.875 133 82.5C135.126 82.2499 144.25 81.25 145.875 81.125C147.5 80.9998 149.375 79.7498 149.875 77.5C153.5 61.6252 149.625 35.2504 148.375 31.75C147.125 28.2503 144.5 27.6251 143.125 27.625C141.875 27.625 125.75 26.5 112.125 26.375C97.75 19.5001 79.6249 18.3751 66.6249 20.625C51.2511 15.7504 43.8757 19.3746 42.6249 20C38.1249 22.25 37.1249 25.375 36.8749 28.625C36.7499 31.375 37.2499 34.375 38.8749 36.125C30.2499 38.625 28.1249 41.875 27.6249 47.375C26.9999 53.25 27.7499 56.25 31.3749 60.125C26.8749 62.375 24.6249 66.25 24.3749 71.25C24.1249 76.875 25.3749 80.25 30.6249 83.125C28.8749 84.75 27.3749 87.75 27.4999 92.75C27.6249 98.125 29.1249 102.625 34.9999 105.25C40.1249 107.625 46.75 108.625 51.4999 109.25C55.75 109.875 64.2501 110.75 72.9999 109C68.9999 123.375 60.8749 132.875 70.7499 152.25Z" fill="white"/>
<path d="M72.9996 109C64.2496 110.75 55.7496 109.875 51.4996 109.25C46.7496 108.625 40.1246 107.625 34.9996 105.25C29.1246 102.625 27.6246 98.125 27.4996 92.75C27.3746 87.75 28.8746 84.75 30.6246 83.125C25.3746 80.25 24.1246 76.875 24.3746 71.25C24.6246 66.25 26.8746 62.375 31.3746 60.125C27.7496 56.25 26.9996 53.25 27.6246 47.375C28.1246 41.875 30.2496 38.625 38.8746 36.125C37.2496 34.375 36.7496 31.375 36.8746 28.625C37.1246 25.375 38.1246 22.25 42.6246 20C43.8746 19.375 51.2496 15.75 66.6246 20.625C79.6246 18.375 97.7496 19.5 112.125 26.375C125.75 26.5 141.875 27.625 143.125 27.625C144.5 27.625 147.125 28.25 148.375 31.75C149.625 35.25 153.5 61.625 149.875 77.5C149.375 79.75 147.5 81 145.875 81.125C144.25 81.25 135.125 82.25 133 82.5C121.75 83.875 124.5 93.625 111.5 109.125C105.375 116.5 92.8746 121.625 92.1246 138C91.8746 143.5 91.4996 152.5 91.4996 153.75C91.4996 161.625 76.2496 163.125 70.7496 152.25C60.8746 132.875 68.9996 123.375 72.9996 109Z" fill="#5D83EE"/>
</svg>
