<svg width="180" height="180" viewBox="0 0 180 180" fill="none" xmlns="http://www.w3.org/2000/svg">
<path d="M127.062 28.5C140.265 28.5002 151.198 36.6558 158.454 47.6836C165.758 58.783 170.024 73.644 170.024 89.6377C170.024 105.63 165.762 120.491 158.46 131.591C151.204 142.62 140.27 150.775 127.062 150.775C113.86 150.775 102.926 142.619 95.6699 131.591C93.3931 128.131 91.411 124.305 89.7617 120.193C88.1124 124.305 86.1313 128.131 83.8545 131.591C76.598 142.619 65.665 150.775 52.4629 150.775C39.2554 150.775 28.3213 142.62 21.0654 131.591C13.7634 120.491 9.50003 105.63 9.5 89.6377C9.5 73.644 13.7668 58.783 21.0703 47.6836C28.3268 36.6557 39.2607 28.5 52.4629 28.5C65.6649 28.5002 76.598 36.6558 83.8545 47.6836C86.1312 51.1436 88.1125 54.9696 89.7617 59.0811C91.411 54.9695 93.3931 51.1437 95.6699 47.6836C102.926 36.6557 113.86 28.5 127.062 28.5Z" fill="#FAFAFA" stroke="white" stroke-width="16"/>
<path d="M52.4625 142.775C33.175 142.775 17.5 118.938 17.5 89.6375C17.5 60.3375 33.1875 36.5 52.4625 36.5C71.7375 36.5 87.425 60.3375 87.425 89.6375C87.425 118.938 71.7375 142.775 52.4625 142.775Z" fill="#FAFAFA"/>
<path d="M52.4625 39C60.75 39 68.6875 44 74.8 53.0875C81.325 62.775 84.925 75.7625 84.925 89.6375C84.925 103.513 81.325 116.5 74.8 126.188C68.6875 135.275 60.75 140.275 52.4625 140.275C44.175 140.275 36.2375 135.275 30.125 126.188C23.5875 116.5 20 103.513 20 89.6375C20 75.7625 23.6 62.775 30.125 53.0875C36.2375 44 44.1625 39 52.4625 39ZM52.4625 34C31.775 34 15 58.9125 15 89.6375C15 120.363 31.775 145.275 52.4625 145.275C73.15 145.275 89.925 120.363 89.925 89.6375C89.925 58.9125 73.15 34 52.4625 34Z" fill="#B0BEC5"/>
<path d="M41.8004 84.4383C38.4254 81.2633 39.1754 74.9633 43.5004 70.3633C43.7254 70.1258 43.9504 69.9008 44.1879 69.6883C42.2629 68.6008 40.1504 67.9883 37.9254 67.9883C28.9379 67.9883 21.6504 77.9008 21.6504 90.1133C21.6504 102.326 28.9379 112.238 37.9254 112.238C46.9129 112.238 54.2004 102.326 54.2004 90.1133C54.2004 87.9258 53.9629 85.8008 53.5254 83.8008C49.4754 86.7133 44.6379 87.1008 41.8004 84.4383Z" fill="url(#paint0_linear_709_2)"/>
<path d="M127.062 145.275C147.752 145.275 164.525 120.365 164.525 89.6375C164.525 58.9098 147.752 34 127.062 34C106.372 34 89.5996 58.9098 89.5996 89.6375C89.5996 120.365 106.372 145.275 127.062 145.275Z" fill="#EEEEEE"/>
<path d="M127.062 142.775C107.787 142.775 92.0996 118.938 92.0996 89.6375C92.0996 60.3375 107.787 36.5 127.062 36.5C146.337 36.5 162.025 60.3375 162.025 89.6375C162.025 118.938 146.35 142.775 127.062 142.775Z" fill="#FAFAFA"/>
<path d="M127.062 39C135.35 39 143.287 44 149.4 53.0875C155.925 62.775 159.525 75.7625 159.525 89.6375C159.525 103.513 155.925 116.5 149.4 126.188C143.287 135.275 135.35 140.275 127.062 140.275C118.775 140.275 110.837 135.275 104.725 126.188C98.1996 116.5 94.5996 103.513 94.5996 89.6375C94.5996 75.7625 98.1996 62.775 104.725 53.0875C110.837 44 118.775 39 127.062 39ZM127.062 34C106.375 34 89.5996 58.9125 89.5996 89.6375C89.5996 120.363 106.375 145.275 127.062 145.275C147.75 145.275 164.525 120.363 164.525 89.6375C164.525 58.9125 147.75 34 127.062 34Z" fill="#B0BEC5"/>
<path d="M116.4 84.4383C113.025 81.2633 113.775 74.9633 118.1 70.3633C118.325 70.1258 118.55 69.9008 118.788 69.6883C116.863 68.6008 114.75 67.9883 112.525 67.9883C103.537 67.9883 96.25 77.9008 96.25 90.1133C96.25 102.326 103.537 112.238 112.525 112.238C121.512 112.238 128.8 102.326 128.8 90.1133C128.8 87.9258 128.563 85.8008 128.125 83.8008C124.088 86.7133 119.237 87.1008 116.4 84.4383Z" fill="url(#paint1_linear_709_2)"/>
<defs>
<linearGradient id="paint0_linear_709_2" x1="37.917" y1="67.9832" x2="37.917" y2="112.242" gradientUnits="userSpaceOnUse">
<stop stop-color="#424242"/>
<stop offset="1" stop-color="#212121"/>
</linearGradient>
<linearGradient id="paint1_linear_709_2" x1="112.524" y1="67.9832" x2="112.524" y2="112.242" gradientUnits="userSpaceOnUse">
<stop stop-color="#424242"/>
<stop offset="1" stop-color="#212121"/>
</linearGradient>
</defs>
</svg>
