<svg width="180" height="180" viewBox="0 0 180 180" fill="none" xmlns="http://www.w3.org/2000/svg">
<path d="M87.5673 0.279127C111.817 -1.17425 134.27 8.25615 152.076 26.0623C169.904 43.8906 179.222 66.262 177.77 90.4832L177.768 90.5272L177.766 90.5701C176.34 112.362 166.306 133.242 150.236 149.342L150.225 149.352C135.691 163.887 115.652 174.862 93.5019 176.877C70.8178 178.94 47.1686 171.455 26.9208 151.2C6.67604 130.948 -0.808822 107.302 1.25284 84.6199C3.26621 62.4709 14.238 42.4346 28.7733 27.8992C44.9081 11.7271 65.6537 1.69644 87.4921 0.28401L87.5292 0.282057L87.5673 0.279127ZM140.762 37.3758C125.824 22.4384 107.712 15.1008 88.5243 16.2508C70.9369 17.3883 53.7493 25.5137 40.0868 39.2137C15.4245 63.8762 4.29985 105.939 38.2372 139.889C71.9095 173.573 113.593 162.872 138.331 138.614L138.912 138.038C152.287 124.638 160.393 107.641 161.74 90.3494L161.8 89.5262C162.932 70.6385 155.924 52.8766 141.457 38.078L140.762 37.3758Z" fill="white"/>
<path d="M138.912 138.037C114.25 162.7 72.1746 173.837 38.2371 139.887C4.29956 105.937 15.4246 63.875 40.0871 39.2125C53.7496 25.5125 70.9371 17.3875 88.5246 16.25C107.712 15.1 125.825 22.4375 140.762 37.375C155.7 52.3125 162.95 70.3375 161.8 89.5249C160.65 107.1 152.5 124.425 138.912 138.037Z" fill="url(#paint0_radial_707_154)"/>
<path d="M102.5 16.9258C114.8 19.8133 126.25 26.4133 136.388 36.4758C151.388 51.4758 158.575 69.4508 157.425 88.6258C156.25 106.251 148.1 123.538 134.487 137.151C118.525 153.113 95.2625 163.401 71.625 159.463C96.75 165.563 121.95 155.001 138.912 138.038C152.5 124.426 160.65 107.101 161.8 89.5133C162.95 70.3258 155.7 52.3008 140.763 37.3633C129.5 26.1008 116.425 19.1633 102.5 16.9258Z" fill="#EB8F00"/>
<path d="M130.887 59.45C127.425 58.45 123.75 60.1625 122.287 63.4625C115.85 75.175 107.762 85.8875 98.2749 95.3C88.8749 104.787 78.1499 112.875 66.4374 119.3C63.1499 120.775 61.4499 124.437 62.4249 127.9C63.4499 131.337 66.8874 133.025 70.1249 134.237C88.2624 141.025 108.225 135.975 123.562 120.725L123.712 120.587C138.95 105.25 144 85.2875 137.212 67.1375C136.012 63.9125 134.312 60.4625 130.887 59.45Z" fill="#422B0D"/>
<path d="M122.599 119.475L122.524 119.55V119.625L122.599 119.475Z" fill="#422B0D"/>
<path d="M99.5125 96.25L99.375 96.375L99.25 96.5125L99.5125 96.25Z" fill="#422B0D"/>
<path d="M99.5125 96.25L99.375 96.375L99.25 96.5125L99.5125 96.25Z" fill="#422B0D"/>
<path d="M122.599 119.475L122.524 119.55V119.625L122.599 119.475Z" fill="#422B0D"/>
<path d="M134.249 102.975C133.612 102.975 132.999 103.062 132.399 103.112C125.612 103.55 119.237 106.512 114.524 111.412C109.474 116.262 106.274 122.737 105.474 129.7C105.399 130.312 105.324 130.95 105.287 131.55C105.249 132.15 105.387 132.65 105.462 133.15C112.224 130.175 118.362 125.962 123.562 120.725L123.712 120.587C128.724 115.6 132.799 109.75 135.737 103.325C135.249 103.175 134.749 103.062 134.249 102.975Z" fill="#ED7770"/>
<path d="M122.287 63.4625C115.85 75.175 107.762 85.8875 98.2749 95.3C88.8749 104.787 78.1499 112.875 66.4374 119.3C63.1499 120.775 61.4499 124.437 62.4249 127.9C62.5874 128.412 62.7999 128.9 63.0749 129.362C63.5874 129.187 64.0749 128.987 64.5624 128.75C80.5249 123.45 94.9999 114.425 106.762 102.4C118.3 91.1125 127.1 77.35 132.5 62.1375C132.712 61.625 132.9 61.1 133.062 60.5625C132.412 60.0625 131.675 59.675 130.887 59.45C127.425 58.45 123.75 60.1625 122.287 63.4625Z" fill="white"/>
<path d="M99.2493 97.1741C106.587 90.0741 111.387 83.0991 117.162 74.5991C118.599 72.4741 119.962 70.2991 121.274 68.0616L122.224 66.3741C122.474 65.9366 122.749 65.5116 123.074 65.1241C123.649 64.4116 124.387 63.8616 125.237 63.5116C127.212 62.7866 129.374 62.7491 131.374 63.4116C135.437 65.3616 138.974 72.3116 138.524 71.0116C138.524 71.0116 137.787 68.0991 137.762 68.0616C136.762 65.5616 135.737 62.7366 133.149 60.5616C130.374 58.4491 126.674 58.0241 123.499 59.4616C122.012 60.1366 120.724 61.1741 119.749 62.4741C119.274 63.0741 118.849 63.7241 118.499 64.4116L117.662 66.0616C116.499 68.2491 115.262 70.4116 113.912 72.5241C109.112 80.5366 103.449 87.9991 97.0243 94.7741L96.8243 94.9741C90.1868 101.324 82.8743 106.912 74.9993 111.637C72.8743 112.887 70.7243 114.137 68.5368 115.387L66.8368 116.249C66.1493 116.599 65.4993 117.012 64.8993 117.499C63.5868 118.474 62.5493 119.762 61.8743 121.249C60.5368 124.399 61.0118 128.037 63.1243 130.737C66.4868 135.124 74.1618 135.737 74.1993 135.737C75.4493 136.187 67.8743 132.962 65.9243 128.899C65.2368 126.974 65.2368 124.862 65.9243 122.937C66.2493 122.062 66.7868 121.287 67.4993 120.687C67.8868 120.362 68.3118 120.087 68.7493 119.849L70.4368 118.899C72.6618 117.649 74.8368 116.212 76.9743 114.774C85.4618 108.999 91.9743 104.774 99.0368 97.3741" fill="#EB8F00"/>
<path d="M153.913 49.1741C155.413 58.7241 146.638 67.7741 138.676 68.8491C133.076 69.5991 126.826 68.3116 117.426 65.9741C116.038 65.7116 114.626 65.2991 113.076 64.9116C107.351 63.3241 101.726 61.4116 96.2133 59.1866C95.1258 58.7866 94.5258 57.6366 94.8008 56.5241C94.9633 56.0491 95.2883 55.6366 95.7008 55.3616C99.9133 51.0366 104.663 47.2616 109.813 44.1116C122.826 36.0616 127.776 34.9741 133.376 34.2241C141.101 32.9616 152.288 38.7491 153.913 49.1741Z" fill="url(#paint1_radial_707_154)"/>
<path d="M141.9 40.237C145.537 41.962 145.562 46.9495 140.012 47.737C136.45 48.212 118.112 49.937 120.25 46.5495C123.75 40.987 136.762 37.7995 141.9 40.237Z" fill="#81D4FA"/>
<path d="M100.813 48.8746L89.2751 59.2246L93.5501 42.7871C93.5876 42.5871 93.6251 42.3996 93.6376 42.1996C94.1126 39.3496 92.1751 36.6496 89.3251 36.1871C88.6501 36.0746 87.9501 36.0996 87.2751 36.2496C84.2376 37.0871 82.0376 39.7371 81.7876 42.8746C81.0751 50.1371 79.4001 67.2496 78.7501 73.9121C78.5501 74.5746 78.9251 75.2746 79.5876 75.4746C80.0251 75.6121 80.5001 75.4871 80.8251 75.1621L106.688 58.8121L107.2 58.4496C110.325 56.0496 111.088 51.4746 108.563 48.8246C106.638 46.7996 103.313 46.9621 100.813 48.8746Z" fill="#422B0D"/>
<path d="M42.3757 140C41.9257 134.612 41.9132 129.762 46.7757 115.925C48.6757 110.45 51.2507 105.237 54.4382 100.4C54.6132 99.9498 54.9382 99.5748 55.3507 99.3248C56.3382 98.8248 57.5382 99.1623 58.1382 100.087C61.3507 104.787 64.2882 109.662 66.9632 114.687C67.6382 116.062 68.3132 117.287 68.8507 118.537C72.9757 126.9 75.4632 132.487 75.9132 137.875C76.5507 145.537 69.8882 155.612 60.6507 156.187C50.5882 156.762 42.8507 147.5 42.3757 140Z" fill="url(#paint2_radial_707_154)"/>
<path d="M51.2508 125.212C53.9633 122.5 56.1258 140 56.4133 143.437C56.8508 148.787 52.1758 149.787 49.8258 146.75C46.4758 142.5 46.7883 129.612 51.2508 125.212Z" fill="#81D4FA"/>
<path d="M47.7129 108.449L56.0379 95.3616L40.5254 102.287L40.0004 102.499C37.2629 103.424 34.2879 101.962 33.3504 99.2241C33.1254 98.5741 33.0379 97.8866 33.0879 97.1991C33.4129 94.0616 35.6629 91.4616 38.7254 90.6991L68.7504 82.5616C69.3754 82.2616 70.1254 82.5241 70.4254 83.1491C70.6254 83.5616 70.5879 84.0491 70.3129 84.4116L58.4754 112.599C58.4004 112.799 58.3129 112.987 58.2129 113.174C56.3629 116.649 51.9629 118.174 48.9379 116.099C46.6254 114.524 46.2504 111.249 47.7129 108.449Z" fill="#422B0D"/>
<defs>
<radialGradient id="paint0_radial_707_154" cx="0" cy="0" r="1" gradientUnits="userSpaceOnUse" gradientTransform="translate(87.6558 86.3162) rotate(-45) scale(71.4913)">
<stop offset="0.5" stop-color="#FDE030"/>
<stop offset="0.92" stop-color="#F7C02B"/>
<stop offset="1" stop-color="#F4A223"/>
</radialGradient>
<radialGradient id="paint1_radial_707_154" cx="0" cy="0" r="1" gradientTransform="matrix(-5.135 -39.105 -60.435 8.295 106.857 48.1288)" gradientUnits="userSpaceOnUse">
<stop offset="0.46" stop-color="#29B6F6"/>
<stop offset="1" stop-color="#1E88E5"/>
</radialGradient>
<radialGradient id="paint2_radial_707_154" cx="0" cy="0" r="1" gradientTransform="matrix(-37.825 3.026 -4.91725 -57.8722 59.3029 102.117)" gradientUnits="userSpaceOnUse">
<stop offset="0.46" stop-color="#29B6F6"/>
<stop offset="1" stop-color="#1E88E5"/>
</radialGradient>
</defs>
</svg>
