<svg width="182" height="180" viewBox="0 0 182 180" fill="none" xmlns="http://www.w3.org/2000/svg">
<path d="M128.431 21.2129C101.043 21.2129 90.9807 49.2004 90.9807 49.2004C90.9807 49.2004 81.0557 21.2129 53.4807 21.2129C32.7557 21.2129 9.13072 37.6379 17.8557 74.9754C26.5807 112.313 91.0557 158.825 91.0557 158.825C91.0557 158.825 155.293 112.313 164.031 74.9754C172.756 37.6379 150.831 21.2129 128.431 21.2129Z" fill="#F44336"/>
<path d="M100.439 171.785L91.0728 178.566L81.6948 171.802L91.0552 158.825L100.439 171.785ZM128.43 5.21289C143.3 5.21289 159.4 10.6792 170.277 23.9502C181.425 37.552 184.781 56.4917 179.611 78.6162L179.609 78.6211C176.686 91.1133 169.521 103.117 161.714 113.465C153.75 124.022 144.231 134.004 135.287 142.502C126.302 151.038 117.643 158.315 111.245 163.451C108.037 166.026 105.376 168.08 103.5 169.503C102.561 170.215 101.817 170.771 101.297 171.155C101.038 171.348 100.833 171.497 100.689 171.603C100.617 171.655 100.56 171.697 100.518 171.728C100.497 171.743 100.48 171.755 100.466 171.765C100.46 171.769 100.454 171.774 100.45 171.777C100.448 171.779 100.445 171.78 100.444 171.781C100.441 171.783 100.439 171.785 91.0552 158.825C91.1184 158.779 154.297 113.019 163.815 75.8525L164.03 74.9756C172.755 37.6381 150.83 21.2129 128.43 21.2129C101.071 21.2129 91.0007 49.1428 90.98 49.2002C90.9457 49.1037 81.0073 21.2129 53.48 21.2129C32.7551 21.213 9.13002 37.6382 17.855 74.9756C26.5732 112.283 90.9532 158.752 91.0552 158.825C81.9148 171.496 81.6974 171.793 81.6899 171.798C81.6888 171.797 81.6854 171.795 81.6831 171.793C81.6786 171.79 81.6729 171.786 81.6665 171.781C81.6533 171.772 81.6357 171.759 81.6148 171.744C81.5729 171.714 81.516 171.672 81.4439 171.619C81.2992 171.514 81.0941 171.364 80.8335 171.172C80.3121 170.787 79.5655 170.232 78.6235 169.521C76.7403 168.098 74.0692 166.044 70.8501 163.469C64.4289 158.333 55.7402 151.055 46.7261 142.52C37.7525 134.023 28.2021 124.04 20.2144 113.482C12.3859 103.135 5.19761 91.1235 2.27491 78.6162C-2.98287 56.1162 1.06999 37.1906 12.398 23.7715C23.3238 10.8288 39.2026 5.21296 53.48 5.21289C70.5274 5.21289 82.8512 12.7756 91.0044 20.8008C99.1406 12.7948 111.441 5.21291 128.43 5.21289Z" fill="white"/>
<path d="M128.431 21.2129C101.043 21.2129 90.9807 49.2004 90.9807 49.2004C90.9807 49.2004 81.0557 21.2129 53.4807 21.2129C32.7557 21.2129 9.13072 37.6379 17.8557 74.9754C26.5807 112.313 91.0557 158.825 91.0557 158.825C91.0557 158.825 155.293 112.313 164.031 74.9754C172.756 37.6379 150.831 21.2129 128.431 21.2129Z" fill="#F44336"/>
<path d="M32.2436 41.0246C36.9311 35.1746 45.3061 30.3371 52.4061 35.9121C56.2436 38.9246 54.5686 45.0996 51.1311 47.6996C46.1311 51.4996 41.7811 53.7871 38.7311 59.7371C36.9061 63.3121 35.8061 67.2246 35.2436 71.2121C35.0186 72.7871 32.9561 73.1746 32.1811 71.7871C26.9061 62.4371 25.4061 49.5621 32.2436 41.0246Z" fill="#FF8A80"/>
</svg>
