<svg width="180" height="180" viewBox="0 0 180 180" fill="none" xmlns="http://www.w3.org/2000/svg">
<mask id="path-1-outside-1_709_72" maskUnits="userSpaceOnUse" x="11" y="2" width="159" height="176" fill="black">
<rect fill="white" x="11" y="2" width="159" height="176"/>
<path d="M153 157.8C153 159.685 153 160.628 152.414 161.214C151.828 161.8 150.886 161.8 149 161.8H117.8C115.914 161.8 114.971 161.8 114.386 161.214C113.8 160.628 113.8 159.685 113.8 157.8V84C113.8 80.5334 113.867 76.6669 114 72.4004C114.047 70.9003 114.094 69.4579 114.141 68.0732C114.183 66.833 114.204 66.2129 114.131 65.9331C113.793 64.6259 112.425 64.0319 111.239 64.6773C110.985 64.8155 110.524 65.277 109.601 66.2002C108.267 67.6669 106.867 69.0002 105.4 70.2002L92.3086 81.0286C90.8443 82.2397 90.1122 82.8453 89.2829 82.7633C88.4536 82.6813 87.8542 81.9441 86.6555 80.4697L71.7185 62.0975C70.5312 60.6371 69.9375 59.9069 70.0215 59.0839C70.1056 58.2609 70.8346 57.6658 72.2927 56.4755L117.096 19.9014C117.643 19.4552 117.916 19.2321 118.242 19.116C118.567 19 118.92 19 119.626 19H149C150.886 19 151.828 19 152.414 19.5858C153 20.1716 153 21.1144 153 23V157.8ZM70.998 102.478C70.998 104.363 70.998 105.306 71.5838 105.892C72.1696 106.478 73.1124 106.478 74.998 106.478H92C93.8856 106.478 94.8284 106.478 95.4142 107.063C96 107.649 96 108.592 96 110.478V120.537C96 122.423 96 123.366 95.4142 123.951C94.8284 124.537 93.8856 124.537 92 124.537H74.998C73.1124 124.537 72.1696 124.537 71.5838 125.123C70.998 125.709 70.998 126.651 70.998 128.537V144.801C70.998 146.686 70.998 147.629 70.4123 148.215C69.8265 148.801 68.8837 148.801 66.998 148.801H57.002C55.1163 148.801 54.1735 148.801 53.5877 148.215C53.002 147.629 53.002 146.686 53.002 144.801V128.537C53.002 126.651 53.002 125.709 52.4162 125.123C51.8304 124.537 50.8876 124.537 49.002 124.537H32C30.1144 124.537 29.1716 124.537 28.5858 123.951C28 123.366 28 122.423 28 120.537V110.478C28 108.592 28 107.649 28.5858 107.063C29.1716 106.478 30.1144 106.478 32 106.478H49.002C50.8876 106.478 51.8304 106.478 52.4162 105.892C53.002 105.306 53.002 104.363 53.002 102.478V85.8008C53.002 83.9152 53.002 82.9724 53.5877 82.3866C54.1735 81.8008 55.1163 81.8008 57.002 81.8008H66.998C68.8837 81.8008 69.8265 81.8008 70.4123 82.3866C70.998 82.9724 70.998 83.9152 70.998 85.8008V102.478Z"/>
</mask>
<path d="M153 157.8C153 159.685 153 160.628 152.414 161.214C151.828 161.8 150.886 161.8 149 161.8H117.8C115.914 161.8 114.971 161.8 114.386 161.214C113.8 160.628 113.8 159.685 113.8 157.8V84C113.8 80.5334 113.867 76.6669 114 72.4004C114.047 70.9003 114.094 69.4579 114.141 68.0732C114.183 66.833 114.204 66.2129 114.131 65.9331C113.793 64.6259 112.425 64.0319 111.239 64.6773C110.985 64.8155 110.524 65.277 109.601 66.2002C108.267 67.6669 106.867 69.0002 105.4 70.2002L92.3086 81.0286C90.8443 82.2397 90.1122 82.8453 89.2829 82.7633C88.4536 82.6813 87.8542 81.9441 86.6555 80.4697L71.7185 62.0975C70.5312 60.6371 69.9375 59.9069 70.0215 59.0839C70.1056 58.2609 70.8346 57.6658 72.2927 56.4755L117.096 19.9014C117.643 19.4552 117.916 19.2321 118.242 19.116C118.567 19 118.92 19 119.626 19H149C150.886 19 151.828 19 152.414 19.5858C153 20.1716 153 21.1144 153 23V157.8ZM70.998 102.478C70.998 104.363 70.998 105.306 71.5838 105.892C72.1696 106.478 73.1124 106.478 74.998 106.478H92C93.8856 106.478 94.8284 106.478 95.4142 107.063C96 107.649 96 108.592 96 110.478V120.537C96 122.423 96 123.366 95.4142 123.951C94.8284 124.537 93.8856 124.537 92 124.537H74.998C73.1124 124.537 72.1696 124.537 71.5838 125.123C70.998 125.709 70.998 126.651 70.998 128.537V144.801C70.998 146.686 70.998 147.629 70.4123 148.215C69.8265 148.801 68.8837 148.801 66.998 148.801H57.002C55.1163 148.801 54.1735 148.801 53.5877 148.215C53.002 147.629 53.002 146.686 53.002 144.801V128.537C53.002 126.651 53.002 125.709 52.4162 125.123C51.8304 124.537 50.8876 124.537 49.002 124.537H32C30.1144 124.537 29.1716 124.537 28.5858 123.951C28 123.366 28 122.423 28 120.537V110.478C28 108.592 28 107.649 28.5858 107.063C29.1716 106.478 30.1144 106.478 32 106.478H49.002C50.8876 106.478 51.8304 106.478 52.4162 105.892C53.002 105.306 53.002 104.363 53.002 102.478V85.8008C53.002 83.9152 53.002 82.9724 53.5877 82.3866C54.1735 81.8008 55.1163 81.8008 57.002 81.8008H66.998C68.8837 81.8008 69.8265 81.8008 70.4123 82.3866C70.998 82.9724 70.998 83.9152 70.998 85.8008V102.478Z" fill="#FDD835"/>
<path d="M113.8 84H97.7998V84H113.8ZM114 72.4004L129.992 72.9001V72.9001L114 72.4004ZM109.601 66.2002L98.2868 54.8865L98.0176 55.1557L97.7615 55.4374L109.601 66.2002ZM105.4 70.2002L95.2686 57.8169L95.2356 57.8439L95.2028 57.871L105.4 70.2002ZM70.4123 82.3866L59.0986 93.7003L70.4123 82.3866ZM53.5877 82.3866L64.9014 93.7003L53.5877 82.3866ZM52.4162 105.892L41.1025 94.578L52.4162 105.892ZM28.5858 107.063L17.2721 95.7496L28.5858 107.063ZM28.5858 123.951L17.2721 135.265L28.5858 123.951ZM52.4162 125.123L63.7299 113.809L52.4162 125.123ZM53.5877 148.215L42.274 159.529L53.5877 148.215ZM70.4123 148.215L81.726 159.529L70.4123 148.215ZM71.5838 125.123L82.8975 136.437L71.5838 125.123ZM95.4142 123.951L106.728 135.265L95.4142 123.951ZM152.414 19.5858L141.101 30.8995L152.414 19.5858ZM117.096 19.9014L127.214 32.2959L117.096 19.9014ZM118.242 19.116L123.612 34.1878L118.242 19.116ZM71.7185 62.0975L84.1332 52.0041L71.7185 62.0975ZM72.2927 56.4755L82.4107 68.8701L72.2927 56.4755ZM70.0215 59.0839L85.9388 60.7095L70.0215 59.0839ZM92.3086 81.0286L82.1109 68.6995L92.3086 81.0286ZM86.6555 80.4697L74.2408 90.5631L86.6555 80.4697ZM89.2829 82.7633L90.8572 66.8409L89.2829 82.7633ZM114.141 68.0732L98.1499 67.5311L114.141 68.0732ZM114.131 65.9331L129.621 61.9256L114.131 65.9331ZM111.239 64.6773L118.887 78.7313L111.239 64.6773ZM95.4142 107.063L84.1005 118.377L95.4142 107.063ZM114.386 161.214L125.699 149.9L114.386 161.214ZM71.5838 105.892L82.8975 94.578L71.5838 105.892ZM152.414 161.214L141.101 149.9L152.414 161.214ZM149 161.8V145.8H117.8V161.8V177.8H149V161.8ZM113.8 157.8H129.8V84H113.8H97.7998V157.8H113.8ZM113.8 84H129.8C129.8 80.7333 129.863 77.0371 129.992 72.9001L114 72.4004L98.0078 71.9006C97.8704 76.2967 97.7998 80.3336 97.7998 84H113.8ZM114 72.4004L129.992 72.9001C130.039 71.4132 130.085 69.9849 130.132 68.6152L114.141 68.0732L98.1499 67.5311C98.1025 68.931 98.0551 70.3875 98.0078 71.9006L114 72.4004ZM109.601 66.2002L97.7615 55.4374C96.9331 56.3487 96.1006 57.1362 95.2686 57.8169L105.4 70.2002L115.532 82.5835C117.634 80.8643 119.601 78.985 121.44 76.963L109.601 66.2002ZM105.4 70.2002L95.2028 57.871L82.1109 68.6995L92.3086 81.0286L102.506 93.3578L115.598 82.5294L105.4 70.2002ZM86.6555 80.4697L99.0702 70.3763L84.1332 52.0041L71.7185 62.0975L59.3039 72.1909L74.2408 90.5631L86.6555 80.4697ZM72.2927 56.4755L82.4107 68.8701L127.214 32.2959L117.096 19.9014L106.978 7.50678L62.1747 44.0809L72.2927 56.4755ZM119.626 19V35H149V19V3H119.626V19ZM153 23H137V157.8H153H169V23H153ZM74.998 106.478V122.478H92V106.478V90.4775H74.998V106.478ZM96 110.478H80V120.537H96H112V110.478H96ZM92 124.537V108.537H74.998V124.537V140.537H92V124.537ZM70.998 128.537H54.998V144.801H70.998H86.998V128.537H70.998ZM66.998 148.801V132.801H57.002V148.801V164.801H66.998V148.801ZM53.002 144.801H69.002V128.537H53.002H37.002V144.801H53.002ZM49.002 124.537V108.537H32V124.537V140.537H49.002V124.537ZM28 120.537H44V110.478H28H12V120.537H28ZM32 106.478V122.478H49.002V106.478V90.4775H32V106.478ZM53.002 102.478H69.002V85.8008H53.002H37.002V102.478H53.002ZM57.002 81.8008V97.8008H66.998V81.8008V65.8008H57.002V81.8008ZM70.998 85.8008H54.998V102.478H70.998H86.998V85.8008H70.998ZM66.998 81.8008V97.8008C67.5289 97.8008 67.7216 97.8018 67.841 97.8048C67.9684 97.8081 67.6228 97.8069 67.0606 97.7313C65.831 97.566 62.274 96.8757 59.0986 93.7003L70.4123 82.3866L81.726 71.0729C77.9648 67.3117 73.6434 66.3284 71.3246 66.0167C69.466 65.7668 67.4885 65.8008 66.998 65.8008V81.8008ZM70.998 85.8008H86.998C86.998 85.3103 87.032 83.3328 86.7821 81.4743C86.4704 79.1554 85.4872 74.8341 81.726 71.0729L70.4123 82.3866L59.0986 93.7003C55.9231 90.5249 55.2328 86.9678 55.0675 85.7382C54.9919 85.176 54.9908 84.8304 54.994 84.9578C54.997 85.0772 54.998 85.2699 54.998 85.8008H70.998ZM53.002 85.8008H69.002C69.002 85.2699 69.003 85.0772 69.006 84.9578C69.0092 84.8304 69.0081 85.176 68.9325 85.7382C68.7672 86.9678 68.0769 90.5249 64.9014 93.7003L53.5877 82.3866L42.274 71.0729C38.5128 74.8341 37.5296 79.1554 37.2179 81.4743C36.968 83.3328 37.002 85.3103 37.002 85.8008H53.002ZM57.002 81.8008V65.8008C56.5115 65.8008 54.534 65.7668 52.6754 66.0167C50.3566 66.3284 46.0352 67.3117 42.274 71.0729L53.5877 82.3866L64.9014 93.7003C61.726 96.8757 58.169 97.566 56.9394 97.7313C56.3772 97.8069 56.0316 97.8081 56.159 97.8048C56.2784 97.8018 56.4711 97.8008 57.002 97.8008V81.8008ZM49.002 106.478V122.478C49.4924 122.478 51.4699 122.512 53.3285 122.262C55.6473 121.95 59.9687 120.967 63.7299 117.205L52.4162 105.892L41.1025 94.578C44.2779 91.4026 47.8349 90.7123 49.0645 90.547C49.6267 90.4714 49.9724 90.4703 49.8449 90.4735C49.7255 90.4765 49.5328 90.4775 49.002 90.4775V106.478ZM53.002 102.478H37.002C37.002 103.008 37.0009 103.201 36.9979 103.32C36.9947 103.448 36.9958 103.102 37.0714 102.54C37.2367 101.311 37.927 97.7535 41.1025 94.578L52.4162 105.892L63.7299 117.205C67.4911 113.444 68.4743 109.123 68.7861 106.804C69.0359 104.945 69.002 102.968 69.002 102.478H53.002ZM28 110.478H44C44 109.947 44.001 109.754 44.0041 109.635C44.0073 109.507 44.0061 109.853 43.9305 110.415C43.7652 111.645 43.0749 115.202 39.8995 118.377L28.5858 107.063L17.2721 95.7496C13.5109 99.5108 12.5277 103.832 12.2159 106.151C11.966 108.01 12 109.987 12 110.478H28ZM32 106.478V90.4775C31.5095 90.4775 29.5321 90.4436 27.6735 90.6934C25.3547 91.0052 21.0333 91.9884 17.2721 95.7496L28.5858 107.063L39.8995 118.377C36.7241 121.552 33.167 122.243 31.9374 122.408C31.3752 122.484 31.0296 122.485 31.157 122.482C31.2764 122.479 31.4691 122.478 32 122.478V106.478ZM32 124.537V108.537C31.4691 108.537 31.2764 108.536 31.157 108.533C31.0296 108.53 31.3752 108.531 31.9374 108.607C33.167 108.772 36.7241 109.462 39.8995 112.638L28.5858 123.951L17.2721 135.265C21.0333 139.026 25.3547 140.009 27.6735 140.321C29.5321 140.571 31.5095 140.537 32 140.537V124.537ZM28 120.537H12C12 121.028 11.966 123.005 12.2159 124.864C12.5277 127.182 13.5109 131.504 17.2721 135.265L28.5858 123.951L39.8995 112.638C43.0749 115.813 43.7652 119.37 43.9305 120.6C44.0061 121.162 44.0073 121.508 44.0041 121.38C44.001 121.261 44 121.068 44 120.537H28ZM53.002 128.537H69.002C69.002 128.047 69.0359 126.069 68.7861 124.211C68.4743 121.892 67.4911 117.57 63.7299 113.809L52.4162 125.123L41.1025 136.437C37.927 133.261 37.2367 129.704 37.0714 128.475C36.9958 127.912 36.9947 127.567 36.9979 127.694C37.0009 127.814 37.002 128.006 37.002 128.537H53.002ZM49.002 124.537V140.537C49.5328 140.537 49.7255 140.538 49.8449 140.541C49.9724 140.544 49.6267 140.543 49.0645 140.468C47.8349 140.302 44.2779 139.612 41.1025 136.437L52.4162 125.123L63.7299 113.809C59.9687 110.048 55.6473 109.065 53.3285 108.753C51.4699 108.503 49.4924 108.537 49.002 108.537V124.537ZM57.002 148.801V132.801C56.4711 132.801 56.2784 132.8 56.159 132.797C56.0316 132.794 56.3772 132.795 56.9394 132.87C58.169 133.036 61.726 133.726 64.9014 136.901L53.5877 148.215L42.274 159.529C46.0352 163.29 50.3566 164.273 52.6754 164.585C54.534 164.835 56.5115 164.801 57.002 164.801V148.801ZM53.002 144.801H37.002C37.002 145.291 36.968 147.269 37.2179 149.127C37.5296 151.446 38.5128 155.768 42.274 159.529L53.5877 148.215L64.9014 136.901C68.0769 140.077 68.7672 143.634 68.9325 144.863C69.0081 145.426 69.0092 145.771 69.006 145.644C69.003 145.524 69.002 145.332 69.002 144.801H53.002ZM70.998 144.801H54.998C54.998 145.332 54.997 145.524 54.994 145.644C54.9908 145.771 54.9919 145.426 55.0675 144.863C55.2328 143.634 55.9231 140.077 59.0986 136.901L70.4123 148.215L81.726 159.529C85.4872 155.768 86.4704 151.446 86.7821 149.127C87.032 147.269 86.998 145.291 86.998 144.801H70.998ZM66.998 148.801V164.801C67.4885 164.801 69.466 164.835 71.3246 164.585C73.6434 164.273 77.9648 163.29 81.726 159.529L70.4123 148.215L59.0986 136.901C62.274 133.726 65.831 133.036 67.0606 132.87C67.6228 132.795 67.9684 132.794 67.841 132.797C67.7216 132.8 67.5289 132.801 66.998 132.801V148.801ZM74.998 124.537V108.537C74.5076 108.537 72.5301 108.503 70.6715 108.753C68.3527 109.065 64.0313 110.048 60.2701 113.809L71.5838 125.123L82.8975 136.437C79.7221 139.612 76.1651 140.302 74.9355 140.468C74.3733 140.543 74.0276 140.544 74.1551 140.541C74.2745 140.538 74.4672 140.537 74.998 140.537V124.537ZM70.998 128.537H86.998C86.998 128.006 86.9991 127.814 87.0021 127.694C87.0053 127.567 87.0042 127.912 86.9286 128.475C86.7633 129.704 86.073 133.261 82.8975 136.437L71.5838 125.123L60.2701 113.809C56.5089 117.57 55.5257 121.892 55.2139 124.211C54.9641 126.069 54.998 128.047 54.998 128.537H70.998ZM96 120.537H80C80 121.068 79.999 121.261 79.9959 121.38C79.9927 121.508 79.9939 121.162 80.0695 120.6C80.2348 119.37 80.9251 115.813 84.1005 112.638L95.4142 123.951L106.728 135.265C110.489 131.504 111.472 127.182 111.784 124.864C112.034 123.005 112 121.028 112 120.537H96ZM92 124.537V140.537C92.4905 140.537 94.4679 140.571 96.3265 140.321C98.6453 140.009 102.967 139.026 106.728 135.265L95.4142 123.951L84.1005 112.638C87.2759 109.462 90.833 108.772 92.0626 108.607C92.6248 108.531 92.9704 108.53 92.843 108.533C92.7236 108.536 92.5309 108.537 92 108.537V124.537ZM149 19V35C149.531 35 149.724 35.001 149.843 35.0041C149.97 35.0073 149.625 35.0061 149.063 34.9305C147.833 34.7652 144.276 34.0749 141.101 30.8995L152.414 19.5858L163.728 8.27208C159.967 4.51088 155.645 3.52766 153.327 3.2159C151.468 2.96602 149.49 3 149 3V19ZM153 23H169C169 22.5095 169.034 20.5321 168.784 18.6735C168.472 16.3547 167.489 12.0333 163.728 8.27208L152.414 19.5858L141.101 30.8995C137.925 27.7241 137.235 24.167 137.069 22.9374C136.994 22.3752 136.993 22.0296 136.996 22.157C136.999 22.2764 137 22.4691 137 23H153ZM117.096 19.9014L127.214 32.2959C127.286 32.2368 127.332 32.1999 127.371 32.1683C127.408 32.1378 127.419 32.1296 127.413 32.1337C127.408 32.138 127.37 32.168 127.31 32.214C127.249 32.2601 127.15 32.3345 127.021 32.4264C126.475 32.8141 125.297 33.5875 123.612 34.1878L118.242 19.116L112.871 4.04432C110.861 4.76056 109.383 5.70359 108.482 6.34339C107.77 6.84956 107.093 7.41296 106.978 7.50678L117.096 19.9014ZM119.626 19V3C119.477 3 118.596 2.99185 117.724 3.05009C116.623 3.12371 114.881 3.32808 112.871 4.04432L118.242 19.116L123.612 34.1878C121.928 34.788 120.525 34.9343 119.858 34.9789C119.699 34.9895 119.576 34.9946 119.499 34.9971C119.424 34.9997 119.375 35.0003 119.369 35.0004C119.362 35.0005 119.375 35.0003 119.423 35.0002C119.474 35 119.532 35 119.626 35V19ZM71.7185 62.0975L84.1332 52.0041C83.7989 51.5929 83.6785 51.4432 83.6058 51.3491C83.5283 51.2486 83.7454 51.5175 84.0413 52.0011C84.6887 53.0592 86.3943 56.2492 85.9388 60.7095L70.0215 59.0839L54.1043 57.4583C53.5648 62.7416 55.5252 66.7081 56.7452 68.7022C57.723 70.3002 58.9952 71.8113 59.3039 72.1909L71.7185 62.0975ZM72.2927 56.4755L62.1747 44.0809C61.7957 44.3903 60.2442 45.613 58.9636 46.9804C57.3656 48.6867 54.6439 52.175 54.1043 57.4583L70.0215 59.0839L85.9388 60.7095C85.4832 65.1697 83.168 67.9491 82.3201 68.8545C81.9325 69.2683 81.6655 69.4877 81.7618 69.405C81.852 69.3275 82.0002 69.2052 82.4107 68.8701L72.2927 56.4755ZM92.3086 81.0286L82.1109 68.6995C81.6989 69.0403 81.5478 69.1639 81.4522 69.239C81.35 69.3192 81.6171 69.0997 82.0996 68.7992C83.1533 68.143 86.3577 66.396 90.8572 66.8409L89.2829 82.7633L87.7086 98.6856C93.0374 99.2125 97.0225 97.2038 99.0157 95.9625C100.615 94.9668 102.124 93.6738 102.506 93.3578L92.3086 81.0286ZM86.6555 80.4697L74.2408 90.5631C74.5536 90.9477 75.7808 92.5114 77.1537 93.8009C78.8652 95.4085 82.3797 98.1587 87.7086 98.6856L89.2829 82.7633L90.8572 66.8409C95.3568 67.2858 98.1569 69.6265 99.0617 70.4763C99.476 70.8655 99.6949 71.133 99.6105 71.0344C99.5315 70.9421 99.4075 70.7912 99.0702 70.3763L86.6555 80.4697ZM114.141 68.0732L130.132 68.6152C130.149 68.1021 130.176 67.3511 130.179 66.7107C130.179 66.5776 130.25 64.3547 129.621 61.9256L114.131 65.9331L98.6414 69.9406C98.4541 69.2166 98.355 68.6133 98.3 68.2087C98.2437 67.7943 98.2166 67.4595 98.2026 67.2431C98.1883 67.0214 98.1832 66.8514 98.1811 66.7548C98.1789 66.6554 98.1791 66.591 98.1791 66.5753C98.1792 66.5561 98.1791 66.609 98.1737 66.7992C98.1684 66.984 98.1609 67.2082 98.1499 67.5311L114.141 68.0732ZM109.601 66.2002L120.914 77.5139C121.154 77.2744 121.324 77.1042 121.466 76.9638C121.612 76.8196 121.662 76.7719 121.66 76.7739C121.654 76.779 121.614 76.8174 121.546 76.8781C121.481 76.9367 121.359 77.0443 121.194 77.1811C121.033 77.3138 120.772 77.5225 120.431 77.7662C120.101 78.0019 119.575 78.3569 118.887 78.7313L111.239 64.6773L103.592 50.6234C101.354 51.841 99.7367 53.4632 99.6821 53.5148C99.2144 53.9568 98.6756 54.4978 98.2868 54.8865L109.601 66.2002ZM114.131 65.9331L129.621 61.9256C126.676 50.5398 113.922 45.002 103.592 50.6234L111.239 64.6773L118.887 78.7313C110.929 83.0619 100.911 78.7121 98.6414 69.9406L114.131 65.9331ZM92 106.478V122.478C92.5309 122.478 92.7236 122.479 92.843 122.482C92.9704 122.485 92.6248 122.484 92.0626 122.408C90.833 122.243 87.2759 121.552 84.1005 118.377L95.4142 107.063L106.728 95.7496C102.967 91.9884 98.6453 91.0052 96.3265 90.6934C94.4679 90.4436 92.4905 90.4775 92 90.4775V106.478ZM96 110.478H112C112 109.987 112.034 108.01 111.784 106.151C111.472 103.832 110.489 99.5108 106.728 95.7496L95.4142 107.063L84.1005 118.377C80.9251 115.202 80.2348 111.645 80.0695 110.415C79.9939 109.853 79.9927 109.507 79.9959 109.635C79.999 109.754 80 109.947 80 110.478H96ZM117.8 161.8V145.8C117.269 145.8 117.076 145.799 116.957 145.796C116.829 145.793 117.175 145.794 117.737 145.869C118.967 146.035 122.524 146.725 125.699 149.9L114.386 161.214L103.072 172.528C106.833 176.289 111.154 177.272 113.473 177.584C115.332 177.834 117.309 177.8 117.8 177.8V161.8ZM113.8 157.8H97.7998C97.7998 158.29 97.7658 160.268 98.0157 162.126C98.3275 164.445 99.3107 168.767 103.072 172.528L114.386 161.214L125.699 149.9C128.875 153.076 129.565 156.633 129.73 157.862C129.806 158.425 129.807 158.77 129.804 158.643C129.801 158.523 129.8 158.331 129.8 157.8H113.8ZM74.998 106.478V90.4775C74.4672 90.4775 74.2745 90.4765 74.1551 90.4735C74.0276 90.4703 74.3733 90.4714 74.9355 90.547C76.1651 90.7123 79.7221 91.4026 82.8975 94.578L71.5838 105.892L60.2701 117.205C64.0313 120.967 68.3527 121.95 70.6715 122.262C72.5301 122.512 74.5076 122.478 74.998 122.478V106.478ZM70.998 102.478H54.998C54.998 102.968 54.9641 104.945 55.2139 106.804C55.5257 109.123 56.5089 113.444 60.2701 117.205L71.5838 105.892L82.8975 94.578C86.073 97.7535 86.7633 101.311 86.9286 102.54C87.0042 103.102 87.0053 103.448 87.0021 103.32C86.9991 103.201 86.998 103.008 86.998 102.478H70.998ZM149 161.8V177.8C149.49 177.8 151.468 177.834 153.327 177.584C155.645 177.272 159.967 176.289 163.728 172.528L152.414 161.214L141.101 149.9C144.276 146.725 147.833 146.035 149.063 145.869C149.625 145.794 149.97 145.793 149.843 145.796C149.724 145.799 149.531 145.8 149 145.8V161.8ZM153 157.8H137C137 158.331 136.999 158.523 136.996 158.643C136.993 158.77 136.994 158.425 137.069 157.862C137.235 156.633 137.925 153.076 141.101 149.9L152.414 161.214L163.728 172.528C167.489 168.767 168.472 164.445 168.784 162.126C169.034 160.268 169 158.29 169 157.8H153Z" fill="white" mask="url(#path-1-outside-1_709_72)"/>
<path d="M153 161.8H113.8V84C113.8 80.5334 113.867 76.6669 114 72.4004C114.133 68.1337 114.267 64.3333 114.4 61C112.667 63 111.067 64.7335 109.601 66.2002C108.267 67.6669 106.867 69.0002 105.4 70.2002L89.2002 83.5996L69.2002 59L118.2 19H153V161.8ZM70.998 106.478H96V124.537H70.998V148.801H53.002V124.537H28V106.478H53.002V81.8008H70.998V106.478Z" fill="#FDD835"/>
</svg>
