<svg width="180" height="180" viewBox="0 0 180 180" fill="none" xmlns="http://www.w3.org/2000/svg">
<path d="M106.401 144.6C106.401 137.883 104.523 133.106 100.77 130.269L100.401 130C96.4007 127.2 91.667 125.8 86.2004 125.8C80.4671 125.8 75.5999 127.2 71.5999 130C67.6001 132.8 65.5999 137.667 65.5999 144.6C65.5999 151.133 67.6001 155.866 71.5999 158.8C75.4749 161.641 80.1636 163.107 85.6653 163.195L86.2004 163.2C91.4962 163.2 96.1034 161.823 100.023 159.07L100.401 158.8C104.275 155.958 106.274 151.427 106.395 145.207L106.401 144.6ZM89.0002 46C93.0002 46 96.1999 46.8004 98.5999 48.4004L99.0608 48.7061C101.287 50.2685 102.401 52.3 102.401 54.7998L102.397 55.125C102.358 56.75 102.026 58.375 101.401 60L101.291 60.3271C100.698 61.9756 99.4006 63.7998 97.4006 65.7998C95.2673 67.7998 91.9999 70.2 87.5999 73C82.9333 75.9333 79.2665 78.8665 76.5999 81.7998C74.0666 84.7331 72.2671 87.8669 71.2004 91.2002L71.0305 91.8047C70.2102 94.8516 69.8001 98.25 69.8001 102V108.4C69.8002 109.436 70.5875 110.287 71.596 110.39L71.8001 110.4H97.8L98.0051 110.39C98.9462 110.294 99.6947 109.546 99.7903 108.604L99.8 108.4V105.4C99.8 103.267 100.267 101.4 101.2 99.7998C102.134 98.1999 103.734 96.5331 106 94.7998C108.267 93.0665 111.334 90.9337 115.2 88.4004C120.8 84.8004 125.267 81.1996 128.6 77.5996C132.067 73.8663 134.534 69.8663 136 65.5996C137.5 61.5996 138.297 57.2481 138.391 52.5449L138.401 51.5996C138.401 41.2664 134.583 32.8732 126.95 26.4189L126.2 25.7998C118.067 19.2665 106.6 16 91.8 16C82.0668 16 72.9998 17.2665 64.5999 19.7998C56.8252 22.0212 49.5077 25.0428 42.6467 28.8633C41.7186 29.3801 41.3791 30.5404 41.8626 31.4863L53.676 54.5918C54.1843 55.5858 55.4068 55.9696 56.4006 55.4609C62.2632 52.4599 67.7967 50.1728 73.0002 48.5996C78.7335 46.8663 84.0669 46 89.0002 46ZM154.401 51.5996C154.401 58.2992 153.348 64.8248 151.055 71.0186C148.767 77.5656 145.063 83.3852 140.325 88.4873L140.324 88.4863C135.846 93.3198 130.273 97.7189 123.968 101.782L123.969 101.783C120.309 104.181 117.628 106.056 115.8 107.448V108.4C115.8 112.389 114.501 116.074 112.305 119.058C120.021 125.976 122.401 135.765 122.401 144.6C122.401 154.462 119.215 164.843 109.863 171.702C102.838 176.854 94.7046 179.2 86.2004 179.2C77.6144 179.2 69.296 176.951 62.1389 171.702C52.7858 164.843 49.5999 154.462 49.5999 144.6C49.5999 136.303 51.6972 127.165 58.342 120.353C55.5169 117.174 53.8001 112.988 53.8001 108.4V102C53.8001 96.7765 54.4075 91.6316 55.8401 86.7197L55.8987 86.5215L55.9612 86.3232C57.7519 80.7275 60.7016 75.73 64.4915 71.3418L64.6243 71.1875L64.761 71.0371C65.8882 69.7971 67.098 68.601 68.3762 67.4424C66.8668 68.1243 65.3058 68.8778 63.6917 69.7041C54.9683 74.1695 44.033 70.8786 39.4299 61.876L27.6165 38.7705C23.2994 30.3268 26.2378 19.6865 34.8626 14.8838L36.3616 14.0635C43.8185 10.0533 51.7008 6.86379 59.9807 4.48145C70.0327 1.44993 80.6711 1.72282e-05 91.8 0C108.75 0 124.266 3.72415 136.22 13.3262C148.231 22.9747 154.401 36.2104 154.401 51.5996Z" fill="white"/>
<path d="M69.8 102C69.8 98 70.2667 94.4 71.2 91.2C72.2667 87.8667 74.0667 84.7333 76.6 81.8C79.2667 78.8667 82.9333 75.9333 87.6 73C92 70.2 95.2667 67.8 97.4 65.8C99.5333 63.6667 100.867 61.7333 101.4 60C102.067 58.2667 102.4 56.5333 102.4 54.8C102.4 52.1333 101.133 50 98.6 48.4C96.2 46.8 93 46 89 46C84.0667 46 78.7333 46.8667 73 48.6C67.7964 50.1732 62.2633 52.4603 56.4007 55.4613C55.4069 55.97 54.1838 55.586 53.6756 54.592L41.8623 31.4866C41.3787 30.5406 41.718 29.3798 42.6461 28.8629C49.5072 25.0424 56.8251 22.0214 64.6 19.8C73 17.2667 82.0667 16 91.8 16C106.6 16 118.067 19.2667 126.2 25.8C134.333 32.3333 138.4 40.9333 138.4 51.6C138.4 56.6667 137.6 61.3333 136 65.6C134.533 69.8667 132.067 73.8667 128.6 77.6C125.267 81.2 120.8 84.8 115.2 88.4C111.333 90.9333 108.267 93.0667 106 94.8C103.733 96.5333 102.133 98.2 101.2 99.8C100.267 101.4 99.8 103.267 99.8 105.4V108.4C99.8 109.505 98.9046 110.4 97.8 110.4H71.8C70.6954 110.4 69.8 109.505 69.8 108.4V102ZM65.6 144.6C65.6 137.667 67.6 132.8 71.6 130C75.6 127.2 80.4667 125.8 86.2 125.8C91.6667 125.8 96.4 127.2 100.4 130C104.4 132.8 106.4 137.667 106.4 144.6C106.4 151.133 104.4 155.867 100.4 158.8C96.4 161.733 91.6667 163.2 86.2 163.2C80.4667 163.2 75.6 161.733 71.6 158.8C67.6 155.867 65.6 151.133 65.6 144.6Z" fill="#F44336"/>
</svg>
