<svg width="180" height="180" viewBox="0 0 180 180" fill="none" xmlns="http://www.w3.org/2000/svg">
<path d="M162 88.625C162 67.8301 154.611 50.0633 140.669 37.3516L140 36.75C126.75 25.125 108.875 18.75 89.5 18.75C54.625 18.75 17 40.625 17 88.625C17 136.625 54.625 158.5 89.5 158.5C108.75 158.5 126.75 152 140 140.375C154.375 127.625 162 109.75 162 88.625ZM178 88.625C178 113.84 168.763 136.25 150.617 152.345L150.585 152.374L150.552 152.402C134.131 166.809 112.285 174.5 89.5 174.5C68.946 174.5 47.0181 168.092 29.9307 153.855C12.4316 139.276 1 117.263 1 88.625C1 59.9873 12.4316 37.9738 29.9307 23.3945C47.0181 9.15837 68.946 2.75 89.5 2.75C112.346 2.75 134.088 10.2781 150.552 24.7227L150.585 24.751L150.617 24.7803C168.785 40.8943 178 63.4417 178 88.625Z" fill="white"/>
<path d="M89.5 158.5C54.625 158.5 17 136.625 17 88.625C17 40.625 54.625 18.75 89.5 18.75C108.875 18.75 126.75 25.125 140 36.75C154.375 49.5 162 67.5 162 88.625C162 109.75 154.375 127.625 140 140.375C126.75 152 108.75 158.5 89.5 158.5Z" fill="url(#paint0_radial_708_111)"/>
<path d="M149.363 47.0879C156.025 57.8379 159.5 70.6379 159.5 84.8754C159.5 106 151.875 123.875 137.5 136.625C124.25 148.25 106.25 154.75 87.0004 154.75C64.4254 154.75 40.7504 145.563 26.7754 126.075C40.2254 148.15 65.5254 158.5 89.5004 158.5C108.75 158.5 126.75 152 140 140.375C154.375 127.625 162 109.75 162 88.6254C162 72.7004 157.663 58.5504 149.363 47.0879Z" fill="#EB8F00"/>
<path d="M137.125 100.262C135.375 97.1123 131.575 95.7248 128.2 97.0123C116.95 100.512 103.2 101.8 89.3503 101.812C75.9878 101.862 62.6878 99.9998 49.8628 96.2498C46.4878 94.9623 42.6878 96.3498 40.9378 99.4998C39.2378 102.637 40.4753 106.275 41.9003 109.412C50.0003 127.062 67.6253 137.612 89.2503 137.675H89.4503C111.075 137.675 128.125 127.8 136.163 110.175C137.588 107.037 138.825 103.4 137.125 100.262Z" fill="white"/>
<path d="M71.2501 81.1129L71.0626 80.8629L70.5251 80.1754L69.8626 79.4629C69.5876 79.1504 69.2626 78.8504 68.9501 78.5254C68.6376 78.2004 68.2501 77.8879 67.9001 77.6254C67.5751 77.3754 67.2251 77.1379 66.8501 76.9504C66.6001 76.8129 66.3251 76.7004 66.0376 76.6379C65.9501 76.6254 65.8626 76.6254 65.7751 76.6379C65.7751 76.6379 65.7001 76.6379 65.6626 76.6379H65.5626C65.7126 76.6379 65.2251 76.6379 65.9001 76.6379H65.2126C65.0251 76.6379 65.1501 76.6379 65.2126 76.6379H65.3126H65.1751C64.8876 76.7004 64.6126 76.8004 64.3501 76.9504C63.9876 77.1504 63.6251 77.3754 63.3001 77.6254C62.9376 77.9004 62.5876 78.2004 62.2626 78.5254C61.6001 79.1629 61.0126 79.7754 60.6376 80.2629L59.9876 81.0129L59.7001 81.3504C57.9001 83.3629 54.8626 83.6879 52.6751 82.1129C51.2751 81.1379 50.5626 79.4504 50.8376 77.7629C50.8376 77.7629 50.9251 77.2629 51.1626 76.3754C51.5376 75.1129 52.0626 73.8879 52.7251 72.7379C53.7876 70.8629 55.2251 69.2254 56.9501 67.9254C58.0876 67.0504 59.3501 66.3504 60.7001 65.8629C61.0751 65.7129 61.4626 65.6004 61.8501 65.5004C62.2626 65.3754 62.6751 65.2879 63.1001 65.2129L63.8626 65.1004L64.5001 65.0254H65.1876H66.1751H66.8126C67.2376 65.0254 67.6501 65.1379 68.0626 65.2004C68.8626 65.3379 69.6626 65.5504 70.4251 65.8379C71.7751 66.3254 73.0376 67.0254 74.1751 67.9004C75.9001 69.2004 77.3376 70.8379 78.4001 72.7129C78.7876 73.3629 79.1251 74.0504 79.4001 74.7504C79.6376 75.3129 79.8376 75.8754 80.0001 76.4629C80.0876 76.7629 80.1626 77.0629 80.2001 77.3629V77.6754C80.5751 80.2254 78.8001 82.6004 76.2501 82.9754C76.1876 82.9879 76.1251 82.9879 76.0626 83.0004C74.2376 83.2629 72.4126 82.5379 71.2501 81.1129Z" fill="#422B0D"/>
<path d="M120.575 81.1129L120.375 80.8629L119.838 80.1754L119.175 79.4629C118.9 79.1504 118.575 78.8504 118.263 78.5254C117.95 78.2004 117.563 77.8879 117.213 77.6254C116.888 77.3754 116.538 77.1379 116.163 76.9504C115.913 76.8129 115.638 76.7004 115.35 76.6379C115.263 76.6254 115.175 76.6254 115.088 76.6379C115.088 76.6379 115.013 76.6379 114.975 76.6379H114.875C115.025 76.6379 114.538 76.6379 115.213 76.6379H114.525C114.338 76.6379 114.463 76.6379 114.525 76.6379H114.625H114.488C114.2 76.7004 113.925 76.8004 113.663 76.9504C113.3 77.1379 112.95 77.3754 112.625 77.6254C112.25 77.9004 111.9 78.2004 111.575 78.5254C110.913 79.1629 110.325 79.7754 109.95 80.2629L109.3 81.0129L109.025 81.3504C107.213 83.3629 104.188 83.6879 101.988 82.1129C100.588 81.1379 99.8751 79.4504 100.15 77.7629C100.15 77.7629 100.238 77.2629 100.488 76.3754C100.863 75.1004 101.375 73.8754 102.05 72.7379C103.113 70.8629 104.538 69.2254 106.263 67.9254C107.4 67.0504 108.663 66.3504 110.013 65.8629C110.388 65.7129 110.775 65.6004 111.163 65.5004C111.575 65.3754 111.988 65.2879 112.413 65.2129L113.188 65.1004L113.813 65.0254H114.5H115.488H116.125C116.55 65.0254 116.963 65.1379 117.375 65.2004C118.188 65.3379 118.975 65.5504 119.738 65.8379C121.088 66.3254 122.35 67.0254 123.488 67.9004C125.213 69.2004 126.65 70.8379 127.713 72.7129C128.1 73.3629 128.438 74.0504 128.713 74.7504C128.95 75.3004 129.15 75.8629 129.313 76.4379C129.4 76.7379 129.475 77.0379 129.513 77.3379V77.6504C129.913 80.2004 128.163 82.5879 125.613 82.9879C125.575 82.9879 125.538 83.0004 125.5 83.0004C123.638 83.3129 121.75 82.5879 120.575 81.1129Z" fill="#422B0D"/>
<path d="M136.113 104.787C136 104.862 128.363 110.574 114 114.274V100.149C112.363 100.399 110.688 100.612 109 100.799V115.399C103.188 116.549 97.2752 117.187 91.3502 117.312V101.787H89.3752C88.3627 101.787 87.3627 101.787 86.3502 101.787V117.312C86.8877 117.324 86.8877 117.337 86.3502 117.337L86.3252 117.312C80.5377 117.212 74.7752 116.662 69.0752 115.649V100.412C67.3752 100.187 65.7127 99.9242 64.0752 99.6367V114.599C49.3002 111.087 41.8752 105.474 41.7752 105.387C41.3627 105.062 40.8502 104.874 40.3252 104.862C40.6752 106.437 41.2002 107.974 41.9002 109.437C42.3377 110.399 42.8127 111.324 43.3127 112.249C49.8502 115.712 56.8377 118.237 64.0752 119.749V119.774V132.074C65.7002 132.862 67.3752 133.574 69.0752 134.187V120.749C74.7752 121.699 80.5502 122.224 86.3252 122.312L86.3502 122.337C86.3377 122.337 86.3377 122.337 86.3252 122.337V137.599C87.2877 137.599 88.2627 137.699 89.2502 137.699H89.4502C90.0877 137.699 90.7002 137.699 91.3252 137.699V122.312C97.2502 122.199 103.163 121.599 109 120.524V134.537C110.7 133.962 112.375 133.287 114 132.524V119.462C121.625 117.712 128.963 114.849 135.763 110.974C135.888 110.699 136.038 110.449 136.163 110.174C137.075 108.324 137.675 106.337 137.913 104.287C137.275 104.212 136.625 104.399 136.113 104.787Z" fill="#B3B3B3"/>
<path d="M137.637 99.5379C135.862 96.3754 132.05 94.9754 128.65 96.2504C115.825 99.9879 102.525 101.85 89.1747 101.788C75.8122 101.85 62.5122 99.9879 49.6872 96.2504C46.3247 94.9754 42.5247 96.3504 40.7747 99.5004C39.0747 102.638 40.2997 106.275 41.7372 109.413C42.3747 110.825 43.0872 112.213 43.8747 113.55C43.8747 113.55 41.2497 103.825 43.5247 101C44.2997 99.8004 45.5997 99.0504 47.0247 98.9754C47.6122 98.9754 48.1872 99.0754 48.7497 99.2504C61.7997 103.088 75.3372 105.025 88.9497 105H89.3872C103 105.025 116.537 103.088 129.587 99.2504C130.15 99.0754 130.725 98.9754 131.312 98.9754C132.737 99.0504 134.05 99.8004 134.825 101C137.137 103.825 134.475 113.588 134.475 113.588C135.25 112.25 136.025 110.875 136.675 109.45C138.1 106.313 139.337 102.688 137.637 99.5379Z" fill="#EB8F00"/>
<defs>
<radialGradient id="paint0_radial_708_111" cx="0" cy="0" r="1" gradientUnits="userSpaceOnUse" gradientTransform="translate(89.5 88.625) scale(71.1996 71.1996)">
<stop offset="0.5" stop-color="#FDE030"/>
<stop offset="0.92" stop-color="#F7C02B"/>
<stop offset="1" stop-color="#F4A223"/>
</radialGradient>
</defs>
</svg>
