<svg width="180" height="180" viewBox="0 0 180 180" fill="none" xmlns="http://www.w3.org/2000/svg">
<path d="M78.6787 21.0791C83.3192 11.7426 96.664 11.6922 101.313 21.0752L101.391 21.2305L101.46 21.3896L117.023 56.8857V56.8867C117.134 57.139 117.374 57.3083 117.638 57.332H117.637L155.55 60.7314L155.753 60.749L155.955 60.7783C166.313 62.2862 170.448 75.0074 162.942 82.3174L162.748 82.5068L162.539 82.6826L133.979 106.675C133.756 106.863 133.67 107.139 133.725 107.392L133.727 107.398L133.729 107.406L142.03 146.268L142.062 146.417L142.088 146.568C143.845 156.858 133.044 164.758 123.758 159.863L123.611 159.786L123.469 159.703L90.377 140.324L90.373 140.322C90.1407 140.186 89.8593 140.186 89.627 140.322L89.6221 140.325L56.5293 159.692L56.3848 159.777L56.2354 159.855C46.9933 164.714 36.1499 156.879 37.9121 146.557L37.9385 146.405L37.9707 146.256L46.2695 107.406C46.3308 107.115 46.2271 106.837 46.0205 106.663V106.662L17.4531 82.6973L17.2432 82.5205L17.0459 82.3291C9.55333 75.0319 13.6856 62.3009 24.0312 60.791L24.2344 60.7607L24.4385 60.7432L62.3506 57.3438L62.4482 57.3281C62.6725 57.2766 62.868 57.1194 62.9648 56.8984L62.9658 56.8975L78.5283 21.4004L78.5996 21.2383L78.6787 21.0791Z" fill="#FDD835" stroke="white" stroke-width="14.8"/>
<path d="M94.6829 24.3607L110.246 59.8575C111.437 62.5747 114.015 64.4363 116.975 64.7022L154.889 68.1016C159.179 68.726 160.89 73.9869 157.779 77.0163L129.22 101.008C126.908 102.951 125.855 106.003 126.491 108.952L134.793 147.813C135.522 152.08 131.047 155.341 127.208 153.317L94.1163 133.938C91.5726 132.447 88.4276 132.447 85.8838 133.938L52.792 153.306C48.9648 155.318 44.4785 152.068 45.207 147.802L53.5088 108.94C54.1332 105.992 53.0926 102.939 50.7801 100.997L22.2091 77.0279C19.1104 74.01 20.8216 68.7375 25.0998 68.1132L63.0132 64.7138C65.9732 64.4479 68.5516 62.5863 69.7426 59.8691L85.3057 24.3722C87.2366 20.4872 92.7635 20.4872 94.6829 24.3607Z" fill="#FDD835"/>
<path d="M93.5496 61.9838L90.9133 35.8294C90.8093 34.3725 90.5086 31.875 92.8443 31.875C94.6943 31.875 95.7002 35.7253 95.7002 35.7253L103.609 56.7228C106.592 64.7125 105.366 67.4528 102.487 69.0716C99.1805 70.9216 94.3011 69.4763 93.5496 61.9838Z" fill="#FFFF8D"/>
</svg>
